<svg width="40" height="41" viewBox="0 0 40 41" fill="none" xmlns="http://www.w3.org/2000/svg">
<g filter="url(#filter0_d_12057_13206)">
<path d="M33.75 6.75H11.25C10.587 6.75 9.95107 7.01339 9.48223 7.48223C9.01339 7.95107 8.75 8.58696 8.75 9.25V11.75H6.25C5.58696 11.75 4.95107 12.0134 4.48223 12.4822C4.01339 12.9511 3.75 13.587 3.75 14.25V31.75C3.75 32.413 4.01339 33.0489 4.48223 33.5178C4.95107 33.9866 5.58696 34.25 6.25 34.25H28.75C29.413 34.25 30.0489 33.9866 30.5178 33.5178C30.9866 33.0489 31.25 32.413 31.25 31.75V29.25H33.75C34.413 29.25 35.0489 28.9866 35.5178 28.5178C35.9866 28.0489 36.25 27.413 36.25 26.75V9.25C36.25 8.58696 35.9866 7.95107 35.5178 7.48223C35.0489 7.01339 34.413 6.75 33.75 6.75ZM11.25 9.25H33.75V19.0547L32.1766 17.4828C31.9444 17.2506 31.6688 17.0664 31.3654 16.9407C31.0621 16.8151 30.7369 16.7504 30.4086 16.7504C30.0802 16.7504 29.7551 16.8151 29.4518 16.9407C29.1484 17.0664 28.8728 17.2506 28.6406 17.4828L25.5156 20.6078L18.6406 13.7328C18.1718 13.2643 17.5362 13.0012 16.8734 13.0012C16.2107 13.0012 15.575 13.2643 15.1062 13.7328L11.25 17.5891V9.25ZM28.75 31.75H6.25V14.25H8.75V26.75C8.75 27.413 9.01339 28.0489 9.48223 28.5178C9.95107 28.9866 10.587 29.25 11.25 29.25H28.75V31.75ZM33.75 26.75H11.25V21.125L16.875 15.5L24.6344 23.2594C24.8688 23.4936 25.1866 23.6252 25.518 23.6252C25.8493 23.6252 26.1672 23.4936 26.4016 23.2594L30.4109 19.25L33.75 22.5906V26.75ZM25 13.625C25 13.2542 25.11 12.8916 25.316 12.5833C25.522 12.275 25.8149 12.0346 26.1575 11.8927C26.5001 11.7508 26.8771 11.7137 27.2408 11.786C27.6045 11.8584 27.9386 12.037 28.2008 12.2992C28.463 12.5614 28.6416 12.8955 28.714 13.2592C28.7863 13.6229 28.7492 13.9999 28.6073 14.3425C28.4654 14.6851 28.225 14.978 27.9167 15.184C27.6084 15.39 27.2458 15.5 26.875 15.5C26.3777 15.5 25.9008 15.3025 25.5492 14.9508C25.1975 14.5992 25 14.1223 25 13.625Z" fill="#FEFEFE"/>
</g>
<defs>
<filter id="filter0_d_12057_13206" x="1.75" y="4.75" width="36.5" height="31.5" filterUnits="userSpaceOnUse" color-interpolation-filters="sRGB">
<feFlood flood-opacity="0" result="BackgroundImageFix"/>
<feColorMatrix in="SourceAlpha" type="matrix" values="0 0 0 0 0 0 0 0 0 0 0 0 0 0 0 0 0 0 127 0" result="hardAlpha"/>
<feOffset/>
<feGaussianBlur stdDeviation="1"/>
<feComposite in2="hardAlpha" operator="out"/>
<feColorMatrix type="matrix" values="0 0 0 0 0 0 0 0 0 0 0 0 0 0 0 0 0 0 0.5 0"/>
<feBlend mode="normal" in2="BackgroundImageFix" result="effect1_dropShadow_12057_13206"/>
<feBlend mode="normal" in="SourceGraphic" in2="effect1_dropShadow_12057_13206" result="shape"/>
</filter>
</defs>
</svg>
