<svg width="26" height="32" viewBox="0 0 26 32" fill="none" xmlns="http://www.w3.org/2000/svg">
<g filter="url(#filter0_d_10133_2263)">
<path d="M23.9738 14.7711C23.9359 14.6108 23.8591 14.4624 23.75 14.339C23.641 14.2156 23.5032 14.121 23.3488 14.0636L16.1475 11.3624L17.98 2.19612C18.0215 1.98315 17.9926 1.76246 17.8977 1.56735C17.8028 1.37224 17.6469 1.21331 17.4538 1.11453C17.2606 1.01574 17.0405 0.982477 16.8267 1.01974C16.613 1.05701 16.4172 1.16279 16.2688 1.32112L2.26879 16.3211C2.15508 16.4409 2.07283 16.5871 2.02937 16.7464C1.98591 16.9058 1.98261 17.0734 2.01975 17.2344C2.05689 17.3953 2.13332 17.5446 2.24222 17.6688C2.35111 17.793 2.48908 17.8883 2.64379 17.9461L9.84754 20.6474L8.02004 29.8036C7.97855 30.0166 8.00745 30.2373 8.10238 30.4324C8.19732 30.6275 8.35314 30.7864 8.54632 30.8852C8.73951 30.984 8.95959 31.0173 9.17334 30.98C9.3871 30.9427 9.58293 30.837 9.73129 30.6786L23.7313 15.6786C23.8429 15.5588 23.9234 15.4134 23.9657 15.2551C24.008 15.0969 24.0108 14.9307 23.9738 14.7711ZM10.6713 26.7499L11.98 20.2024C12.0269 19.9702 11.9898 19.7289 11.8753 19.5215C11.7608 19.3141 11.5765 19.154 11.355 19.0699L4.75004 16.5886L15.3275 5.25612L14.02 11.8036C13.9732 12.0358 14.0103 12.2771 14.1248 12.4845C14.2392 12.6919 14.4236 12.852 14.645 12.9361L21.245 15.4111L10.6713 26.7499Z" fill="#FEFEFE"/>
</g>
<defs>
<filter id="filter0_d_10133_2263" x="-0.00585938" y="-0.995117" width="26.0055" height="33.9897" filterUnits="userSpaceOnUse" color-interpolation-filters="sRGB">
<feFlood flood-opacity="0" result="BackgroundImageFix"/>
<feColorMatrix in="SourceAlpha" type="matrix" values="0 0 0 0 0 0 0 0 0 0 0 0 0 0 0 0 0 0 127 0" result="hardAlpha"/>
<feOffset/>
<feGaussianBlur stdDeviation="1"/>
<feComposite in2="hardAlpha" operator="out"/>
<feColorMatrix type="matrix" values="0 0 0 0 0 0 0 0 0 0 0 0 0 0 0 0 0 0 0.5 0"/>
<feBlend mode="normal" in2="BackgroundImageFix" result="effect1_dropShadow_10133_2263"/>
<feBlend mode="normal" in="SourceGraphic" in2="effect1_dropShadow_10133_2263" result="shape"/>
</filter>
</defs>
</svg>
