<svg width="26" height="34" viewBox="0 0 26 34" fill="none" xmlns="http://www.w3.org/2000/svg">
<g filter="url(#filter0_d_10144_2272)">
<path d="M3.74001 5.32749C3.65219 5.2285 3.5456 5.14792 3.42641 5.09043C3.30722 5.03294 3.1778 4.99967 3.04566 4.99256C2.91352 4.98545 2.78129 5.00464 2.65662 5.04902C2.53195 5.09339 2.41733 5.16207 2.3194 5.25106C2.22146 5.34006 2.14217 5.44761 2.08611 5.56748C2.03005 5.68735 1.99834 5.81716 1.99282 5.94937C1.98729 6.08159 2.00806 6.21359 2.05393 6.33771C2.09979 6.46184 2.16984 6.57563 2.26001 6.67249L7.16626 12.07L2.26876 17.32C2.15505 17.4398 2.07279 17.5859 2.02934 17.7453C1.98588 17.9046 1.98257 18.0723 2.01972 18.2332C2.05686 18.3942 2.13329 18.5434 2.24219 18.6676C2.35108 18.7918 2.48905 18.8871 2.64376 18.945L9.84751 21.6462L8.02001 30.8037C7.97851 31.0167 8.00741 31.2374 8.10235 31.4325C8.19728 31.6276 8.3531 31.7866 8.54629 31.8853C8.73948 31.9841 8.95956 32.0174 9.17331 31.9801C9.38706 31.9429 9.5829 31.8371 9.73126 31.6787L17.4638 23.3937L22.26 28.6687C22.3478 28.7677 22.4544 28.8483 22.5736 28.9058C22.6928 28.9633 22.8222 28.9966 22.9544 29.0037C23.0865 29.0108 23.2187 28.9916 23.3434 28.9472C23.4681 28.9028 23.5827 28.8342 23.6806 28.7452C23.7786 28.6562 23.8578 28.5486 23.9139 28.4287C23.97 28.3089 24.0017 28.1791 24.0072 28.0469C24.0127 27.9146 23.992 27.7826 23.9461 27.6585C23.9002 27.5344 23.8302 27.4206 23.74 27.3237L3.74001 5.32749ZM10.6713 27.75L11.98 21.2025C12.0268 20.9703 11.9897 20.729 11.8753 20.5216C11.7608 20.3142 11.5764 20.1541 11.355 20.07L4.75001 17.5887L8.51501 13.555L16.1125 21.9125L10.6713 27.75ZM10.5825 9.87499C10.4864 9.78538 10.409 9.67772 10.3545 9.55817C10.3001 9.43861 10.2698 9.3095 10.2652 9.17822C10.2607 9.04693 10.2821 8.91603 10.3282 8.79301C10.3742 8.66999 10.4441 8.55725 10.5338 8.46124L16.2688 2.31624C16.4171 2.15791 16.613 2.05213 16.8267 2.01486C17.0405 1.97759 17.2605 2.01086 17.4537 2.10964C17.6469 2.20842 17.8027 2.36736 17.8977 2.56247C17.9926 2.75758 18.0215 2.97827 17.98 3.19124L16.1475 12.3625L23.3513 15.0637C23.5048 15.122 23.6417 15.2172 23.7497 15.3409C23.8578 15.4646 23.9337 15.613 23.9708 15.773C24.0078 15.9331 24.0049 16.0997 23.9623 16.2583C23.9196 16.417 23.8386 16.5626 23.7263 16.6825L20.9388 19.6687C20.7566 19.8572 20.5077 19.9666 20.2457 19.9734C19.9837 19.9803 19.7294 19.8839 19.5377 19.7052C19.346 19.5264 19.2322 19.2795 19.2207 19.0176C19.2092 18.7558 19.301 18.4999 19.4763 18.305L21.25 16.4112L14.65 13.9362C14.4286 13.8521 14.2442 13.6921 14.1297 13.4847C14.0153 13.2773 13.9782 13.036 14.025 12.8037L15.3338 6.25624L12 9.82749C11.9103 9.92402 11.8023 10.0019 11.6824 10.0565C11.5624 10.1112 11.4329 10.1416 11.3011 10.146C11.1694 10.1504 11.0381 10.1288 10.9148 10.0822C10.7914 10.0357 10.6785 9.9653 10.5825 9.87499Z" fill="#FEFEFE"/>
</g>
<defs>
<filter id="filter0_d_10144_2272" x="-0.00805664" y="0" width="26.0161" height="33.9951" filterUnits="userSpaceOnUse" color-interpolation-filters="sRGB">
<feFlood flood-opacity="0" result="BackgroundImageFix"/>
<feColorMatrix in="SourceAlpha" type="matrix" values="0 0 0 0 0 0 0 0 0 0 0 0 0 0 0 0 0 0 127 0" result="hardAlpha"/>
<feOffset/>
<feGaussianBlur stdDeviation="1"/>
<feComposite in2="hardAlpha" operator="out"/>
<feColorMatrix type="matrix" values="0 0 0 0 0 0 0 0 0 0 0 0 0 0 0 0 0 0 0.5 0"/>
<feBlend mode="normal" in2="BackgroundImageFix" result="effect1_dropShadow_10144_2272"/>
<feBlend mode="normal" in="SourceGraphic" in2="effect1_dropShadow_10144_2272" result="shape"/>
</filter>
</defs>
</svg>
