<svg width="100" height="100" viewBox="0 0 100 100" fill="none" xmlns="http://www.w3.org/2000/svg">
<mask id="path-1-inside-1_10133_3795" fill="white">
<path d="M100 50C100 77.6142 77.6142 100 50 100C22.3858 100 0 77.6142 0 50C0 22.3858 22.3858 0 50 0C77.6142 0 100 22.3858 100 50ZM10 50C10 72.0914 27.9086 90 50 90C72.0914 90 90 72.0914 90 50C90 27.9086 72.0914 10 50 10C27.9086 10 10 27.9086 10 50Z"/>
</mask>
<path d="M100 50C100 77.6142 77.6142 100 50 100C22.3858 100 0 77.6142 0 50C0 22.3858 22.3858 0 50 0C77.6142 0 100 22.3858 100 50ZM10 50C10 72.0914 27.9086 90 50 90C72.0914 90 90 72.0914 90 50C90 27.9086 72.0914 10 50 10C27.9086 10 10 27.9086 10 50Z" fill="#FEFEFE" stroke="#AEAEAE" stroke-width="2" mask="url(#path-1-inside-1_10133_3795)"/>
<path d="M50.1816 33.5088C50.6011 33.5505 50.9952 33.7365 51.2959 34.0371C51.6396 34.3809 51.8329 34.8469 51.833 35.333V48.167H64.667C65.1531 48.1671 65.6192 48.3604 65.9629 48.7041C66.3066 49.0479 66.5 49.5138 66.5 50C66.5 50.4862 66.3066 50.9521 65.9629 51.2959C65.6191 51.6396 65.1531 51.8329 64.667 51.833H51.833V64.667C51.8329 65.1531 51.6396 65.6191 51.2959 65.9629C50.9521 66.3066 50.4862 66.5 50 66.5C49.5138 66.5 49.0479 66.3066 48.7041 65.9629C48.3604 65.6192 48.1671 65.1531 48.167 64.667V51.833H35.333C34.8469 51.8329 34.3809 51.6396 34.0371 51.2959C33.6934 50.9521 33.5 50.4862 33.5 50C33.5 49.5138 33.6934 49.0479 34.0371 48.7041C34.3808 48.3604 34.8469 48.1671 35.333 48.167H48.167V35.333C48.1671 34.8469 48.3604 34.3808 48.7041 34.0371C49.0479 33.6934 49.5138 33.5 50 33.5L50.1816 33.5088Z" fill="#FEFEFE" stroke="#AEAEAE"/>
</svg>
