<svg width="22" height="12" viewBox="0 0 22 12" fill="none" xmlns="http://www.w3.org/2000/svg">
<path d="M0.292554 10.2924L10.2926 0.292433C10.3854 0.199456 10.4957 0.125697 10.6171 0.0753725C10.7385 0.025048 10.8686 -0.000852823 11.0001 -0.000852823C11.1315 -0.000852823 11.2616 0.025048 11.383 0.0753725C11.5044 0.125697 11.6147 0.199456 11.7076 0.292433L21.7076 10.2924C21.8952 10.4801 22.0006 10.7346 22.0006 10.9999C22.0006 11.2653 21.8952 11.5198 21.7076 11.7074C21.5199 11.8951 21.2654 12.0005 21.0001 12.0005C20.7347 12.0005 20.4802 11.8951 20.2926 11.7074L11.0001 2.41368L1.70756 11.7074C1.61464 11.8003 1.50434 11.874 1.38295 11.9243C1.26156 11.9746 1.13145 12.0005 1.00005 12.0005C0.868659 12.0005 0.738551 11.9746 0.617158 11.9243C0.495765 11.874 0.385465 11.8003 0.292554 11.7074C0.199643 11.6145 0.125945 11.5042 0.075662 11.3828C0.0253786 11.2614 -0.000502229 11.1313 -0.000502229 10.9999C-0.000502229 10.8685 0.0253786 10.7384 0.075662 10.617C0.125945 10.4956 0.199643 10.3853 0.292554 10.2924Z" fill="#FEFEFE"/>
</svg>
