<svg width="36" height="36" viewBox="0 0 36 36" fill="none" xmlns="http://www.w3.org/2000/svg">
<g filter="url(#filter0_d_12057_13220)">
<path d="M2 18C2 9.16344 9.16344 2 18 2C26.8366 2 34 9.16344 34 18C34 26.8366 26.8366 34 18 34C9.16344 34 2 26.8366 2 18Z" fill="#FEFEFE"/>
<path d="M18 11.5714C16.4178 11.5714 14.871 12.0239 13.5554 12.8715C12.2398 13.7192 11.2145 14.924 10.609 16.3336C10.0035 17.7432 9.84504 19.2943 10.1537 20.7907C10.4624 22.2871 11.2243 23.6617 12.3431 24.7405C13.462 25.8194 14.8874 26.5541 16.4393 26.8518C17.9911 27.1494 19.5997 26.9967 21.0615 26.4128C22.5233 25.8289 23.7727 24.8401 24.6518 23.5715C25.5308 22.3029 26 20.8115 26 19.2857C25.9976 17.2405 25.1539 15.2797 23.6542 13.8335C22.1544 12.3873 20.121 11.5738 18 11.5714ZM18 25.7143C16.6815 25.7143 15.3925 25.3373 14.2962 24.6309C13.1999 23.9245 12.3454 22.9205 11.8408 21.7458C11.3362 20.5712 11.2042 19.2786 11.4614 18.0316C11.7187 16.7845 12.3536 15.6391 13.286 14.74C14.2183 13.841 15.4062 13.2287 16.6994 12.9807C17.9926 12.7326 19.333 12.8599 20.5512 13.3465C21.7694 13.8331 22.8106 14.657 23.5431 15.7142C24.2757 16.7714 24.6667 18.0143 24.6667 19.2857C24.6647 20.9901 23.9617 22.6241 22.7119 23.8293C21.462 25.0345 19.7675 25.7124 18 25.7143ZM21.805 15.6166C21.867 15.6763 21.9162 15.7472 21.9497 15.8253C21.9833 15.9033 22.0005 15.9869 22.0005 16.0714C22.0005 16.1559 21.9833 16.2396 21.9497 16.3176C21.9162 16.3956 21.867 16.4665 21.805 16.5262L18.4717 19.7405C18.4097 19.8003 18.3362 19.8476 18.2553 19.88C18.1743 19.9123 18.0876 19.9289 18 19.9289C17.9124 19.9289 17.8257 19.9123 17.7447 19.88C17.6638 19.8476 17.5903 19.8003 17.5283 19.7405C17.4664 19.6808 17.4173 19.6099 17.3837 19.5319C17.3502 19.4538 17.333 19.3702 17.333 19.2857C17.333 19.2012 17.3502 19.1176 17.3837 19.0396C17.4173 18.9615 17.4664 18.8906 17.5283 18.8309L20.8617 15.6166C20.9236 15.5568 20.9971 15.5094 21.078 15.4771C21.159 15.4447 21.2457 15.4281 21.3333 15.4281C21.4209 15.4281 21.5077 15.4447 21.5886 15.4771C21.6696 15.5094 21.7431 15.5568 21.805 15.6166ZM15.3333 9.64286C15.3333 9.47236 15.4036 9.30885 15.5286 9.18829C15.6536 9.06773 15.8232 9 16 9H20C20.1768 9 20.3464 9.06773 20.4714 9.18829C20.5964 9.30885 20.6667 9.47236 20.6667 9.64286C20.6667 9.81335 20.5964 9.97687 20.4714 10.0974C20.3464 10.218 20.1768 10.2857 20 10.2857H16C15.8232 10.2857 15.6536 10.218 15.5286 10.0974C15.4036 9.97687 15.3333 9.81335 15.3333 9.64286Z" fill="#333333"/>
</g>
<defs>
<filter id="filter0_d_12057_13220" x="0" y="0" width="36" height="36" filterUnits="userSpaceOnUse" color-interpolation-filters="sRGB">
<feFlood flood-opacity="0" result="BackgroundImageFix"/>
<feColorMatrix in="SourceAlpha" type="matrix" values="0 0 0 0 0 0 0 0 0 0 0 0 0 0 0 0 0 0 127 0" result="hardAlpha"/>
<feOffset/>
<feGaussianBlur stdDeviation="1"/>
<feComposite in2="hardAlpha" operator="out"/>
<feColorMatrix type="matrix" values="0 0 0 0 0 0 0 0 0 0 0 0 0 0 0 0 0 0 0.25 0"/>
<feBlend mode="normal" in2="BackgroundImageFix" result="effect1_dropShadow_12057_13220"/>
<feBlend mode="normal" in="SourceGraphic" in2="effect1_dropShadow_12057_13220" result="shape"/>
</filter>
</defs>
</svg>
